HIERARCHY
ROOT Hips
{
 OFFSET 0.000000 0.000000 0.000000
 CHANNELS 6 Xposition Yposition Zposition Yrotation Xrotation Zrotation
 JOINT Chest
 {
  OFFSET 0.000000 13.173100 -0.061900
  CHANNELS 3 Yrotation Xrotation Zrotation
  JOINT Chest2
  {
   OFFSET 0.000000 8.040800 0.126200
   CHANNELS 3 Yrotation Xrotation Zrotation
   JOINT Chest3
   {
    OFFSET 0.000000 7.994400 0.000000
    CHANNELS 3 Yrotation Xrotation Zrotation
    JOINT Chest4
    {
     OFFSET 0.000000 7.986200 0.000000
     CHANNELS 3 Yrotation Xrotation Zrotation
     JOINT Neck
     {
      OFFSET 0.000000 12.259400 0.000000
      CHANNELS 3 Yrotation Xrotation Zrotation
      JOINT Head
      {
       OFFSET 0.000000 7.518700 0.267100
       CHANNELS 3 Yrotation Xrotation Zrotation
       End Site
       {
        OFFSET 0.000000 13.617700 0.141000
       }
      }
     }
     JOINT RightCollar
     {
      OFFSET -2.983800 8.314300 0.000000
      CHANNELS 3 Yrotation Xrotation Zrotation
      JOINT RightShoulder
      {
       OFFSET -16.133400 0.000000 0.000000
       CHANNELS 3 Yrotation Xrotation Zrotation
       JOINT RightElbow
       {
        OFFSET 0.000000 -29.822100 0.000000
        CHANNELS 3 Yrotation Xrotation Zrotation
        JOINT RightWrist
        {
         OFFSET 0.000000 -24.437700 0.010900
         CHANNELS 3 Yrotation Xrotation Zrotation
         End Site
         {
          OFFSET 0.000000 -18.312300 0.000000
         }
        }
       }
      }
     }
     JOINT LeftCollar
     {
      OFFSET 2.983800 8.314300 0.000000
      CHANNELS 3 Yrotation Xrotation Zrotation
      JOINT LeftShoulder
      {
       OFFSET 16.133400 0.000000 0.000000
       CHANNELS 3 Yrotation Xrotation Zrotation
       JOINT LeftElbow
       {
        OFFSET 0.000000 -29.822100 0.000000
        CHANNELS 3 Yrotation Xrotation Zrotation
        JOINT LeftWrist
        {
         OFFSET 0.000000 -24.437700 0.010900
         CHANNELS 3 Yrotation Xrotation Zrotation
         End Site
         {
          OFFSET 0.000000 -18.312300 0.000000
         }
        }
       }
      }
     }
    }
   }
  }
 }
 JOINT RightHip
 {
  OFFSET -11.206700 0.306200 0.030900
  CHANNELS 3 Yrotation Xrotation Zrotation
  JOINT RightKnee
  {
   OFFSET 0.000000 -57.334900 0.009400
   CHANNELS 3 Yrotation Xrotation Zrotation
   JOINT RightAnkle
   {
    OFFSET 0.000000 -43.376200 0.036600
    CHANNELS 3 Yrotation Xrotation Zrotation
    JOINT RightToe
    {
     OFFSET 0.000000 -10.035500 18.363100
     CHANNELS 3 Yrotation Xrotation Zrotation
     End Site
     {
      OFFSET 0.000000 -1.618500 7.239000
     }
    }
   }
  }
 }
 JOINT LeftHip
 {
  OFFSET 11.206700 0.306200 0.030900
  CHANNELS 3 Yrotation Xrotation Zrotation
  JOINT LeftKnee
  {
   OFFSET 0.000000 -57.334900 0.009400
   CHANNELS 3 Yrotation Xrotation Zrotation
   JOINT LeftAnkle
   {
    OFFSET 0.000000 -43.376200 0.036600
    CHANNELS 3 Yrotation Xrotation Zrotation
    JOINT LeftToe
    {
     OFFSET 0.000000 -10.035500 18.363100
     CHANNELS 3 Yrotation Xrotation Zrotation
     End Site
     {
      OFFSET 0.000000 -1.618500 7.239000
     }
    }
   }
  }
 }
}
MOTION
Frames: 14
Frame Time: 0.008333
-94.513538 64.473582 93.608838 173.825568 -37.799368 -2.923374 3.399454 21.449805 2.049926 0.412672 3.013967 0.371212 0.724905 4.747837 0.550979 3.065981 18.226493 2.569788 0.685109 16.070805 -0.450137 1.425727 -6.146508 -1.171588 -4.517066 -2.023874 -3.730496 -4.957648 -5.043523 1.893591 -98.643599 -49.110140 121.509244 18.105017 16.418741 78.284011 -4.734254 0.803821 0.983741 16.607794 -7.985947 1.641836 88.359342 -40.906716 -124.605334 -21.726461 23.805298 -88.638577 -4.176712 -43.355182 3.957478 -137.647917 87.509563 -133.170712 -0.701529 -9.647131 -2.071770 0.045476 -0.205210 0.006819 -1.571758 -39.936216 4.721077 70.846008 84.581614 60.133599 -5.495025 -14.519324 9.836961 0.372385 1.190958 0.238530
-94.514865 64.472160 93.610764 173.841818 -37.802686 -2.955090 3.414230 21.403829 2.055357 0.414132 2.993046 0.370187 0.729986 4.713627 0.541842 3.066545 18.267980 2.597148 0.666607 16.054507 -0.460299 1.361930 -6.039302 -1.124446 -4.548302 -1.951276 -3.695609 -5.082520 -5.160101 1.839996 -98.037436 -48.113390 121.386110 17.474909 16.349330 77.999389 -4.791058 0.852450 0.980518 16.651270 -8.093302 1.624105 87.783683 -40.002884 -124.595663 -20.962930 23.799717 -88.338119 -4.216355 -43.342143 3.995074 -137.362507 87.511712 -132.898684 -0.701408 -9.644132 -2.056582 0.043602 -0.209251 0.007849 -1.596332 -39.931895 4.744517 70.840447 84.579436 60.129423 -5.476945 -14.527900 9.825504 0.373179 1.183896 0.233944
-94.518308 64.470723 93.611943 173.853486 -37.803988 -2.978650 3.427925 21.361766 2.056134 0.428701 2.935672 0.348209 0.717654 4.738910 0.562585 3.078560 18.208202 2.586865 0.646536 16.125145 -0.436174 1.313122 -5.942746 -1.081261 -4.590324 -1.801634 -3.639950 -5.192129 -5.272584 1.793117 -97.484022 -47.165893 121.279249 16.850086 16.270134 77.695857 -4.843504 0.984646 0.991770 16.683397 -8.163518 1.620903 87.276311 -39.106727 -124.663052 -20.191458 23.795990 -87.970931 -4.244700 -43.332207 4.021700 -137.178664 87.517553 -132.725272 -0.703021 -9.645060 -2.045962 0.045540 -0.209268 0.009242 -1.612739 -39.930781 4.761178 70.842936 84.577660 60.134962 -5.474522 -14.527745 9.825144 0.372647 1.180979 0.231795
-94.534011 64.463015 93.618352 173.773755 -37.765587 -2.898269 3.482833 21.301982 2.011577 0.437042 2.890809 0.331573 0.710362 4.767545 0.578725 3.083162 18.117565 2.560655 0.608855 16.147167 -0.435144 1.303610 -5.809736 -1.030379 -4.651042 -1.592496 -3.557788 -5.257196 -5.449032 1.728629 -96.971762 -46.263585 121.177665 16.244064 16.182143 77.381063 -4.890699 1.118790 0.999868 16.718715 -8.197104 1.632854 86.840729 -38.228269 -124.795076 -19.406979 23.782685 -87.539971 -4.163094 -43.445426 3.991492 -137.479198 87.492964 -133.030265 -0.750960 -9.454445 -2.059697 0.089023 -0.361841 0.035951 -1.506563 -39.972073 4.699356 70.795080 84.565165 60.096598 -5.472342 -14.504370 9.827870 0.373489 1.159379 0.230212
-94.528157 64.467657 93.612276 173.873306 -37.799350 -3.017581 3.435227 21.316811 2.068130 0.435830 2.884772 0.331923 0.710884 4.757685 0.576727 3.082592 18.103324 2.559571 0.591767 16.158618 -0.432705 1.254731 -5.744844 -1.000253 -4.681304 -1.482275 -3.515241 -5.330711 -5.598078 1.689149 -96.498920 -45.407750 121.081722 15.661381 16.101652 77.071205 -4.929150 1.179231 0.981234 16.750858 -8.294496 1.619335 86.391122 -37.421227 -124.850429 -18.606291 23.750605 -87.060790 -4.282105 -43.323399 4.066724 -136.885834 87.524850 -132.458172 -0.709119 -9.646035 -2.019348 0.046681 -0.210513 0.014776 -1.626053 -39.939751 4.774204 70.866415 84.573852 60.172902 -5.458758 -14.515980 9.828501 0.366649 1.156953 0.216374
-94.531643 64.467704 93.609681 173.892801 -37.804885 -3.049063 3.435479 21.282732 2.075549 0.431448 2.898729 0.339639 0.711757 4.715935 0.564496 3.071384 18.062218 2.546871 0.604643 16.252997 -0.399860 1.172061 -5.721763 -0.974279 -4.684070 -1.348101 -3.477405 -5.416605 -5.704860 1.676801 -96.053633 -44.600167 120.985897 15.112712 16.030100 76.781854 -4.999057 1.320012 0.947515 16.811641 -8.466525 1.580908 85.942362 -36.702148 -124.835521 -17.791869 23.704390 -86.553899 -4.311154 -43.305971 4.093999 -136.848614 87.534819 -132.429471 -0.715538 -9.651168 -2.009010 0.044484 -0.208939 0.015672 -1.651939 -39.935461 4.792177 70.922810 84.572710 60.232901 -5.448921 -14.514290 9.826947 0.361891 1.148399 0.212341
-94.537218 64.466980 93.606908 173.898109 -37.805901 -3.061560 3.439262 21.252525 2.072056 0.429824 2.888714 0.338082 0.708999 4.700704 0.561842 3.058281 18.014588 2.533177 0.563799 16.254727 -0.397569 1.161321 -5.648518 -0.945518 -4.682690 -1.218356 -3.443310 -5.497967 -5.807685 1.676179 -95.630644 -43.840392 120.886869 14.604283 15.960534 76.519010 -5.020679 1.442970 0.944517 16.840823 -8.540427 1.551583 85.568722 -35.984752 -124.909294 -16.975217 23.656828 -86.033327 -4.284333 -43.299474 4.082877 -136.893037 87.541515 -132.457039 -0.721242 -9.658187 -2.001534 0.042486 -0.205503 0.019786 -1.656473 -39.935293 4.792982 70.962379 84.568761 60.278393 -5.438618 -14.509519 9.823934 0.354392 1.138875 0.210121
-94.542138 64.465537 93.604339 173.912092 -37.802458 -3.079836 3.433942 21.218365 2.068676 0.427721 2.878252 0.336297 0.705600 4.684700 0.559133 3.053932 17.984560 2.528119 0.534851 16.251902 -0.394797 1.132983 -5.608422 -0.922421 -4.699391 -1.078298 -3.410174 -5.564092 -5.933245 1.681761 -95.242584 -43.131753 120.793398 14.127976 15.892869 76.280733 -5.027412 1.541052 0.949133 16.856606 -8.595948 1.507341 85.199511 -35.293969 -124.978700 -16.172964 23.614181 -85.500242 -4.293237 -43.296740 4.088044 -136.917132 87.544963 -132.478579 -0.719213 -9.660631 -2.001548 0.051438 -0.210904 0.023294 -1.670114 -39.939925 4.798288 71.002839 84.567221 60.323621 -5.438856 -14.506712 9.825262 0.354583 1.134052 0.207979
-94.541565 64.465144 93.600624 173.939364 -37.806614 -3.125722 3.435450 21.153080 2.070533 0.424393 2.856873 0.334251 0.697502 4.713569 0.578508 3.052185 17.957063 2.521460 0.515535 16.260920 -0.387203 1.094314 -5.592025 -0.901411 -4.725047 -0.934693 -3.378967 -5.628587 -6.052981 1.698534 -94.883111 -42.472412 120.705059 13.678676 15.826532 76.061107 -5.037007 1.641705 0.956884 16.877573 -8.645996 1.455688 84.823102 -34.623506 -125.042317 -15.398608 23.578825 -84.951798 -4.328210 -43.278736 4.125373 -136.833051 87.555679 -132.395401 -0.721651 -9.665602 -1.994603 0.051359 -0.211437 0.023369 -1.714074 -39.935871 4.834437 71.071180 84.573418 60.393477 -5.430612 -14.517911 9.827273 0.349926 1.136183 0.202479
-94.543481 64.463681 93.596869 173.959785 -37.808137 -3.151520 3.430911 21.119517 2.067433 0.421621 2.856771 0.338035 0.699105 4.686069 0.573435 3.047737 17.937537 2.518436 0.496917 16.265668 -0.380808 1.057453 -5.583548 -0.882903 -4.790508 -0.724180 -3.341761 -5.663073 -6.239548 1.723614 -94.532286 -41.853577 120.609306 13.256784 15.759490 75.853056 -5.078429 1.784653 0.945160 16.927492 -8.728069 1.437188 84.463204 -33.941950 -125.122259 -14.653451 23.559569 -84.390438 -4.329190 -43.271187 4.140434 -137.015986 87.565464 -132.583956 -0.737047 -9.668946 -1.984452 0.038514 -0.212651 0.035234 -1.739041 -39.935025 4.849141 71.097031 84.580181 60.421136 -5.423551 -14.520567 9.825164 0.352081 1.133537 0.202390
-94.544194 64.461461 93.593443 173.978825 -37.808627 -3.175803 3.428262 21.090670 2.066962 0.415184 2.874160 0.349291 0.703477 4.593321 0.535830 3.052938 17.975835 2.544801 0.478393 16.265660 -0.377404 1.021850 -5.583923 -0.870046 -4.823996 -0.586953 -3.316434 -5.720529 -6.356243 1.755591 -94.198684 -41.272509 120.510241 12.858368 15.697813 75.652153 -5.090965 1.887479 0.953462 16.960325 -8.800072 1.354716 84.085642 -33.327948 -125.164451 -13.927443 23.565088 -83.819198 -4.297995 -43.268104 4.131720 -136.941798 87.560893 -132.483279 -0.748818 -9.669911 -1.971746 0.043621 -0.216168 0.037276 -1.765186 -39.936315 4.863898 71.149526 84.583532 60.475576 -5.418450 -14.522152 9.823798 0.348309 1.129440 0.199206
-94.545363 64.458502 93.590107 174.001049 -37.808805 -3.193583 3.422748 21.071920 2.064052 0.412126 2.856836 0.342114 0.705304 4.600690 0.542122 3.050595 17.965973 2.543784 0.458741 16.261323 -0.377181 1.013303 -5.571614 -0.860426 -4.858956 -0.473512 -3.296529 -5.767400 -6.460058 1.791898 -93.897352 -40.730839 120.419232 12.479308 15.645542 75.460221 -5.103148 1.973155 0.958596 16.985435 -8.875442 1.270968 83.722798 -32.743371 -125.194559 -13.211539 23.587596 -83.227389 -4.295966 -43.265015 4.129755 -136.994102 87.559307 -132.530080 -0.752468 -9.674471 -1.967486 0.051117 -0.220527 0.036199 -1.787697 -39.935338 4.871908 71.162628 84.586398 60.487743 -5.426381 -14.526217 9.824448 0.357873 1.131022 0.199192
-94.545870 64.455175 93.586784 174.025371 -37.810799 -3.209050 3.409855 21.067986 2.062715 0.427225 2.835967 0.329106 0.695495 4.620182 0.552916 3.046926 17.959457 2.545612 0.437930 16.259159 -0.380312 1.003696 -5.581843 -0.857352 -4.891331 -0.384916 -3.283617 -5.808344 -6.550960 1.831159 -93.628441 -40.229388 120.332487 12.120914 15.595308 75.287065 -5.119746 2.046945 0.956665 16.994113 -8.950032 1.210032 83.394091 -32.176147 -125.222709 -12.500732 23.607864 -82.605384 -4.301069 -43.260423 4.132028 -137.125768 87.558046 -132.666801 -0.763806 -9.681095 -1.956274 0.048724 -0.222162 0.036074 -1.809433 -39.932351 4.876831 71.164774 84.589228 60.488786 -5.436534 -14.529364 9.821819 0.361139 1.133248 0.202165
-94.545249 64.451948 93.583188 174.050714 -37.817367 -3.224081 3.397045 21.072249 2.061657 0.432922 2.846339 0.327935 0.694578 4.625311 0.553733 3.039236 17.944787 2.548638 0.416941 16.271055 -0.386773 0.967407 -5.622981 -0.855932 -4.905991 -0.345930 -3.279039 -5.855992 -6.594009 1.869976 -93.390894 -39.773357 120.245957 11.783903 15.540268 75.140560 -5.129236 2.082454 0.953592 16.973370 -8.989202 1.163562 83.107992 -31.649657 -125.244140 -11.789868 23.609006 -81.964540 -4.315385 -43.250858 4.136695 -137.209199 87.554139 -132.756397 -0.768969 -9.687773 -1.956649 0.044016 -0.224397 0.041195 -1.831378 -39.924761 4.880158 71.170118 84.591789 60.492162 -5.442114 -14.532400 9.820054 0.366919 1.135002 0.204181
